<svg id="레이어_1" data-name="레이어 1" xmlns="http://www.w3.org/2000/svg" viewBox="0 0 1440 4100"><defs><style>.cls-1{fill:#5ec0dd;}.cls-2{fill:#0c316f;}.cls-3{fill:none;}.cls-4{fill:#b76c7b;}.cls-5{fill:#be808a;}.cls-6{fill:#d4c9d4;}.cls-7{fill:#dcd3dc;}.cls-8{fill:#e41d80;}.cls-9{fill:#2064e5;}.cls-10{fill:#97806a;}.cls-11{fill:#e0c7ee;}.cls-12{fill:#f7e1af;}.cls-13{fill:#fcfcfc;}.cls-14{fill:#443e40;}</style></defs><rect class="cls-1" x="-106" y="-146" width="1589" height="4441"/><path class="cls-2" d="M434.49,3111a4.12,4.12,0,0,0,.51,0C438.4,3111,438,3111,434.49,3111Z"/><path class="cls-3" d="M945.74,2868.34q-20.37,0-32.51,15t-12.13,42.75q0,27.72,12.13,42.75t32.51,15q20.37,0,32.34-15t12-42.75q0-27.61-12-42.7T945.74,2868.34Z"/><path class="cls-4" d="M0,498s188.5-28.61,248.5-186.25S514.41,117.4,514.41,117.4,689.49,58.74,689.49-1H-1Z"/><path class="cls-5" d="M835.18,260.38c11.17-7.87,604.58-68.76,604.82-55.38,1,52,0,198.88,0,198.88s-445.76-92.5-607.47-26.74c-33.61,13.66-84.9,28.74-65.41-26C779.5,316.4,804.73,281.83,835.18,260.38Z"/><polygon class="cls-6" points="1206.31 538.47 1194.28 485.92 1222.64 503.68 1239.99 448.8 1244.36 503.81 1267.96 480.31 1260.17 532.48 1206.31 538.47"/><path class="cls-7" d="M225,1090c146,53,220,100,212,174s17,31-127,163-127-14-144,117-91,27-91,27-36,15-51,66-24,32-24,32V939.41S79,1037,225,1090Z"/><path class="cls-3" d="M206.93,2168q-5.73-4.34-15.14-4.34H160.23v36.18h31a38.28,38.28,0,0,0,8.12-.84,19.93,19.93,0,0,0,6.83-2.76,14,14,0,0,0,4.7-5.26,18.14,18.14,0,0,0,1.76-8.5Q212.65,2172.33,206.93,2168Z"/><path class="cls-3" d="M202.31,2140.21q5-3.69,5-12a15.43,15.43,0,0,0-1.66-7.57,12.42,12.42,0,0,0-4.43-4.61,18.86,18.86,0,0,0-6.37-2.31,42.33,42.33,0,0,0-7.48-.64H160.23v30.82h29.35Q197.33,2143.9,202.31,2140.21Z"/><path class="cls-8" d="M390.46,4106c-12.89-51.37-35.92-111.66-75.59-178.6q-5.5-9.26-11.2-17.23H249.16a29,29,0,0,1,29-29h0c-98.45-88.4-226.54,42.37-282.18,110V4106Z"/><path class="cls-9" d="M1086.82,602.88l-35.1,213c49.28-30.89,106-68.41,156.35-106.56Z"/><path class="cls-10" d="M1343,564.05c-8.86,39.29-65.85,92.89-135,145.29C1157.74,747.49,1101,785,1051.72,815.9c-70,43.89-124.92,74.41-124.92,74.41C831.11,893.12,769.5,1020,769.5,1020h0s669.06,112.34,670.5,58V889l1-293S1367.5,455.5,1343,564.05Z"/><path class="cls-9" d="M608.34,3031q11.17-2.91,22.51-5.29C613.11,3025.75,611.41,3027,608.34,3031Z"/><path class="cls-1" d="M630.85,3025.69h1.4c33,0,13.91-3.48,67.79-3.48s59-1.74,63.39,0c2.55,1-8-3.2-17.31-6.94q-6.51-.18-13-.18A497.11,497.11,0,0,0,630.85,3025.69Z"/><path class="cls-9" d="M630.85,3025.69a497.11,497.11,0,0,1,102.22-10.6q6.54,0,13,.18l-13-5.23s-143.24,3.57-222,52.2c0,0-4.91,4.49-13.09,12.4A485.68,485.68,0,0,1,608.34,3031C611.41,3027,613.11,3025.75,630.85,3025.69Z"/><path class="cls-3" d="M630.85,3025.69h1.4c33,0,13.91-3.48,67.79-3.48s59-1.74,63.39,0c2.55,1-8-3.2-17.31-6.94l-13-5.23s-143.24,3.57-222,52.2c0,0-4.91,4.49-13.09,12.4A485.68,485.68,0,0,1,608.34,3031Q619.51,3028.07,630.85,3025.69Z"/><path class="cls-3" d="M1160.85,3686c-5.12,41.35-5.59,6.34-45.35,90.64-43.46,92.13-15.65,26.07-55.63,73s-29.55,20.86-5.21-24.33c3.84-7.14,6.51-12.32,8.26-16H839.83c-3.23,1.38-11.63,3-18.11,5.6-8.69,3.47-7,6.95-10.43,10.43s0,10.43-17.38,5.21-17.38-1.74-17.38-12.17v-9.07H727.05c-3.16,13.14-9.91,26.46-21.79,26.46-20.86,0-40,24.33-41.72,31.29s3.48,38.24-3.48,40-6.95,3.47-22.6,31.29,7,22.6,8.7,27.81,86.91,6.95,119.94,6.95,33,7,40,7c4.64,0,26.74,3.64,40.94,6.07,87.9-20.74,168.56-65.46,234-130.92a491.27,491.27,0,0,0,107.75-161.62h-23.26Z"/><path class="cls-3" d="M1064,3752.41c3.22-10.14,6.62-21.73,9.8-34.88a101.11,101.11,0,0,0,2.9-24H1064Z"/><path class="cls-3" d="M1064,3801.2V3807C1066.61,3801,1066,3800.25,1064,3801.2Z"/><path class="cls-3" d="M1205.6,3645.32a491.82,491.82,0,0,0,16.79-85.39H1205.6Z"/><path class="cls-1" d="M763.43,3022.21c-4.4-1.74-9.5,0-63.39,0s-34.76,3.48-67.79,3.48h-1.4q-11.34,2.39-22.51,5.29c-2.29,3-5.37,7.6-16.6,14.47-26.61,16.29.53,11.53,42.62,9.79s17-1.74,41.35,0,24.33,10.43,24.33,22.6-5.21,8.69-20.86,15.64-36.5,5.22-41.72,27.82,7,19.12,17.39,33,8.69,10.43,3.47,20.86-3.47,5.22,5.22,13.91,46.93,6.95,45.19,17.38-1.73,10.43-10.42,12.17,3.47-10.43-13.91,17.38-3.48,20.86-1.74,27.82,55.63,8.69,8.69,12.16-26.07-6.95-33-17.38-36.5-29.55-41.72-12.17-31.28,20.86-55.62,26.08c-16.27,3.48-13.12,3.87-13.4,6.33H969.71a50.84,50.84,0,0,1,27.58-3.08c6.83,1.15,10.4,2.06,11.89,3.08h160.07a493.67,493.67,0,0,0-88.2-119.64c-89.87-89.86-208.37-140.68-334.93-143.95C755.46,3019,766,3023.22,763.43,3022.21Z"/><path class="cls-3" d="M618.34,3981.75c-17.38-1.73-43.45-29.55-45.19-33s-5.22-13.91-27.82-33-20.08-97.35-20.08-97.35a66.79,66.79,0,0,0-2.64-9.07H344.53a499.44,499.44,0,0,0,40.57,45.89c69.65,69.65,156.5,115.85,251,134.64C632.91,3986.43,627.45,3982.67,618.34,3981.75Z"/><path class="cls-3" d="M369.77,3223.86c39.92-61.21,101.53-123.41,128.23-149.22a496.78,496.78,0,0,0-201.09,204.22h45.17A277.75,277.75,0,0,1,369.77,3223.86Z"/><path class="cls-9" d="M1081.05,3855.17c-65.47,65.46-146.13,110.18-234,130.92,7.07,1.21,12.19,2.11,12.19,2.11s-58.35,10.94-98.86,15.42-120.44-8-120.44-8a18.6,18.6,0,0,0-3.84-5.83c-94.47-18.79-181.32-65-251-134.64a499.44,499.44,0,0,1-40.57-45.89H331.78a509.49,509.49,0,0,0,46.18,53c94.86,94.85,221,147.09,355.11,147.09s260.26-52.24,355.11-147.09a501.16,501.16,0,0,0,111.49-168.76H1188.8A491.27,491.27,0,0,1,1081.05,3855.17Z"/><path class="cls-9" d="M385.1,3159.22A494.35,494.35,0,0,1,498,3074.64c8.18-7.91,13.09-12.4,13.09-12.4,78.74-48.63,222-52.2,222-52.2l13,5.23c126.56,3.27,245.06,54.09,334.93,143.95a493.67,493.67,0,0,1,88.2,119.64h11.32a503.06,503.06,0,0,0-92.39-126.77c-94.85-94.85-221-147.09-355.11-147.09S472.82,3057.24,378,3152.09a503.71,503.71,0,0,0-92.43,126.77h11.38A493.44,493.44,0,0,1,385.1,3159.22Z"/><path class="cls-9" d="M766.1,3973.06c-33,0-118.21-1.74-119.94-6.95s-24.34,0-8.7-27.81,15.65-29.55,22.6-31.29,1.74-33,3.48-40,20.86-31.29,41.72-31.29c11.88,0,18.63-13.32,21.79-26.46H522.61a66.79,66.79,0,0,1,2.64,9.07s-2.51,78.23,20.08,97.35,26.08,29.55,27.82,33,27.81,31.29,45.19,33c9.11.92,14.57,4.68,17.73,8.06A498.74,498.74,0,0,0,847,3986.09c-14.2-2.43-36.3-6.07-40.94-6.07C799.13,3980,799.13,3973.06,766.1,3973.06Z"/><path class="cls-9" d="M369.77,3223.86a277.75,277.75,0,0,0-27.69,55h205.5c.28-2.46-2.87-2.85,13.4-6.33,24.34-5.22,50.41-8.69,55.62-26.08s34.77,1.74,41.72,12.17-13.9,20.86,33,17.38-7-5.21-8.69-12.16-15.64,0,1.74-27.82,5.21-15.64,13.91-17.38,8.69-1.74,10.42-12.17-36.5-8.69-45.19-17.38-10.43-3.48-5.22-13.91,7-6.95-3.47-20.86-22.6-10.43-17.39-33,26.08-20.86,41.72-27.82S700,3090,700,3077.84s0-20.86-24.33-22.6.74-1.74-41.35,0-69.23,6.5-42.62-9.79c11.23-6.87,14.31-11.46,16.6-14.47A485.68,485.68,0,0,0,498,3074.64C471.3,3100.45,409.69,3162.65,369.77,3223.86Z"/><path class="cls-9" d="M1089.26,3571.6v122h-12.58a101.11,101.11,0,0,1-2.9,24c-3.18,13.15-6.58,24.74-9.8,34.88v48.79c2-.95,2.63-.17,0,5.77v2.31h-1.06c-1.75,3.71-4.42,8.89-8.26,16-24.34,45.19-34.77,71.27,5.21,24.33s12.17,19.13,55.63-73c39.76-84.3,40.23-49.29,45.35-90.64l-71.08-114.4Z"/><polygon class="cls-11" points="1168.09 3633.6 1168.09 3559.93 1121.75 3559.93 1167.59 3633.6 1168.09 3633.6"/><path class="cls-11" d="M997.29,3275.78a50.84,50.84,0,0,0-27.58,3.08h39.47C1007.69,3277.84,1004.12,3276.93,997.29,3275.78Z"/><path class="cls-11" d="M776.53,3818.35c0,10.43,0,7,17.38,12.17s13.91-1.74,17.38-5.21,1.74-7,10.43-10.43c6.48-2.59,14.88-4.22,18.11-5.6h-63.3Z"/><path d="M1190.35,3559.93c-3.46,17.22-6.13,26.58-8.8,35.92-3.47,12.17-12.17,13.91-19.12,76.49-.59,5.32-1.11,9.81-1.58,13.66l4.69,7.55h23.26a487.62,487.62,0,0,0,16.8-48.23v-85.39Z"/><path d="M1076.68,3693.55c0-20.11-6.48-36.16-12.7-49.18v49.18Z"/><path d="M1205.6,3693.55V3678c-1.89,5.22-3.88,10.4-5.93,15.55Z"/><path d="M1188.8,3693.55h10.87c2-5.15,4-10.33,5.93-15.55v-32.68A487.62,487.62,0,0,1,1188.8,3693.55Z"/><path d="M1168.09,3633.6h-.51l-45.83-73.67H1064v84.44c6.22,13,12.66,29.07,12.7,49.18h12.58v-122h.51l71.08,114.4c.47-3.85,1-8.34,1.58-13.66,7-62.58,15.65-64.32,19.12-76.49,2.67-9.34,5.34-18.7,8.8-35.92h-22.26Z"/><path class="cls-12" d="M1175.57,3279.86q7.54,14.43,14.12,29.3h11.82v29.27a491,491,0,0,1,27.35,119.21h63.29L1290,3488l-60-1c.19,5.61,1.41,15.56,1.41,21.2a501.41,501.41,0,0,1-2.79,52.73H1250c4-9.4,12.43-17.77,19-25.06,7.81-8.68,13.63-15.48,25-20.41s11.64-7.4,25.88-7.4a92,92,0,0,1,27.74,4.21,79.26,79.26,0,0,1,24.22,12.37,68.06,68.06,0,0,1,17.84,20.16,62.33,62.33,0,0,1,6.58,16.13H1451l3-53.33-8-227.74Z"/><path d="M1238.51,3565.36a113.61,113.61,0,0,0-6.13,37.88,109.8,109.8,0,0,0,6.13,37.12,88.65,88.65,0,0,0,17.6,30,80.54,80.54,0,0,0,28.19,20q16.71,7.28,37.63,7.28a67.08,67.08,0,0,0,26.28-5.49q13-5.49,23.73-19.26l4.08,20.66h25.51v-98.47H1325v29.85h40.31q-1.79,19.13-12.63,29.21t-30.74,10.07q-13.53,0-23-5.23a43.77,43.77,0,0,1-15.31-13.9,60.11,60.11,0,0,1-8.54-19.52,92.47,92.47,0,0,1-2.68-22.32,99.41,99.41,0,0,1,2.68-23.21,61.27,61.27,0,0,1,8.54-20l0-.07H1240.6C1239.87,3561.7,1239.15,3563.5,1238.51,3565.36Z"/><path class="cls-11" d="M1205.6,3645.32V3678a499.83,499.83,0,0,0,26.93-118.07h-10.14A491.82,491.82,0,0,1,1205.6,3645.32Z"/><path class="cls-11" d="M1222.61,3456.64h10.16A499.66,499.66,0,0,0,1206,3337.43v33A490.63,490.63,0,0,1,1222.61,3456.64Z"/><path class="cls-11" d="M1183.42,3308.16h11q-6.42-14.86-13.83-29.3h-11.32Q1176.82,3293.29,1183.42,3308.16Z"/><path class="cls-12" d="M1347.48,3546.63q-10.07-7.55-24.39-7.54-13.32,0-22.63,5.15a42.66,42.66,0,0,0-15,13.76H1357A33.21,33.21,0,0,0,1347.48,3546.63Z"/><path class="cls-11" d="M1235,3490.32h-10.1c.19,5.61.32,11.24.32,16.88a498.59,498.59,0,0,1-2.79,52.73h10.14a509.64,509.64,0,0,0,2.74-52.73C1235.27,3501.56,1235.14,3495.93,1235,3490.32Z"/><path class="cls-3" d="M225.94,3693.55H185.37L137.15,3511.4h40.06l28.83,124h.51l25.2-98.78c-.56-9.76-.88-19.56-.88-29.41a500,500,0,0,1,54.66-228.34H220.78V3506.6H89.62v302.68H331.78a496.82,496.82,0,0,1-88-188.43Z"/><path class="cls-3" d="M1222.61,3456.64A490.63,490.63,0,0,0,1206,3370.4v86.24Z"/><path class="cls-3" d="M916.41,3368.83a26.87,26.87,0,0,0,1.28-8.62,21.18,21.18,0,0,0-2.29-10.46,17,17,0,0,0-6.12-6.38,25.93,25.93,0,0,0-8.81-3.19,58.83,58.83,0,0,0-10.33-.89h-37.5v42.6h39.88C898.77,3354.53,902,3379.22,916.41,3368.83Z"/><path class="cls-12" d="M1064,3801.2c-3.26,1.53-10.2,7.59-12.8,3.25-3.85-6.43,3.69-23.31,12.8-52v-58.86h-12.22v-82.07c-.33-2.48-.31-3.72,0-4.7v-36a10,10,0,0,0-2.32.75s-20.86,13.9-19.12,3.47-3.48-13.9-3.48-13.9a17,17,0,0,0-9.78,2v130.47H977V3591.41c-19.48,4-6.71,12.9-19.7,9.66-13.9-3.48-3.47-7-10.43-15.65a11.13,11.13,0,0,0-4.57-3.24v111.37h-37.5V3564.46h-.51l-44.65,129.09H852.9c-16.89,25.5-15.18,25.2-12,36.15,3.47,12.17-3.48,26.08-8.7,27.81s-8.69,45.2-10.43-7c-1.43-43,23.13-52.9,11.34-57h-4.28l-.38-1.08c-2.22-.36-5-.69-8.41-1,0,0-12.17-5.22-19.13-5.22s-7,1.74-8.69-3.47c-1.4-4.22-3.95-3.89-8.54-4.53v15.31H746.12V3674c-3.43-2.55-7.6-5.82-13-9.88-15.64-11.67-1.74-4-10.43-10.93-6.34-5.08-4.36-3.67-11-3.63,0,.29,0,.57.08.85q.24,4.33.51,10.2t.89,12c.18,1.74.42,3.44.69,5.1,3.49,2,5.38,4.56,5.38,6.78,0,5.21,9.5,6.11,9.5,6.11,26.87,4.37,25.27,6.05,27,23.44s-5.22,24.33-12.17,29.55-17.38,33-14.84,42c1.09,3.88.77,13.7-1.61,23.63h49.48v-1.36s5.21-19.12,29.55-17.38,18.76,17.38,24.15,17.38,9.3-1.73,10.83,0c.39.45-.12.89-1.23,1.36h223.09c.41-.84.75-1.61,1.06-2.31Z"/><path class="cls-3" d="M1202,3507.2c-.09,1.47-.18,2.86-.27,4.2h3.87v48.53h16.79a498.59,498.59,0,0,0,2.79-52.73c0-5.64-.13-11.27-.32-16.88H1203C1202.75,3495.22,1202.41,3500.8,1202,3507.2Z"/><path class="cls-3" d="M784.14,3565.74h-.51v102.94c16.51-.82,26.6-4.69,33.45-8.63Z"/><path class="cls-3" d="M658,3441.85a43.69,43.69,0,0,0,15.31,13.9q9.44,5.23,23,5.23t23-5.23a43.86,43.86,0,0,0,15.31-13.9,60.21,60.21,0,0,0,8.54-19.52,92.53,92.53,0,0,0,2.68-22.32,99.55,99.55,0,0,0-2.68-23.22,61.31,61.31,0,0,0-8.54-20,43.49,43.49,0,0,0-15.31-14q-9.44-5.22-23-5.23t-23,5.23a43.32,43.32,0,0,0-15.31,14,61.54,61.54,0,0,0-8.55,20,100.09,100.09,0,0,0-2.68,23.22,93,93,0,0,0,2.68,22.32A60.44,60.44,0,0,0,658,3441.85Z"/><path class="cls-3" d="M437.08,3623.14c3.85-19.22,14.39-25.55,14.39-25.55s2.79-21,3.37-32.83l-20.73,58.38Z"/><path class="cls-3" d="M314.08,3356.77a61.54,61.54,0,0,0-8.55,20,100.09,100.09,0,0,0-2.67,23.22,93,93,0,0,0,2.67,22.32,60.44,60.44,0,0,0,8.55,19.52,43.69,43.69,0,0,0,15.31,13.9q9.44,5.23,23,5.23c2,0,3.93-.1,5.8-.26-4.12-4-9.51-10.62-16.2-21.32-17.38-27.81-17.38-55.62-17.38-55.62s-1.32-15.22,1.51-39A43,43,0,0,0,314.08,3356.77Z"/><path class="cls-12" d="M997.29,3305.56c1.74,24.33,0,0,20.86,5.21,15.09,3.77,12,5.73,18.33,10.47l5-13.08h3.06c.73-3.32,3-4.6,6.69-.87a7.7,7.7,0,0,0,1.09.87h30.23l.86,2.29a83.52,83.52,0,0,1,11.28.32c15.64,1.74,10.43,6.95,36.5,40s13.91,22.6,31.29,59.1l3.5,7.36V3308.16h17.49q-6.59-14.86-14.17-29.3H1009.18C1014.15,3282.25,996,3286.84,997.29,3305.56Z"/><path class="cls-3" d="M494.92,3774.9c-24.33-12.17-38.24-40-50.41-67.8-10.84-24.79-7.88-28.88-8.34-54.11H423.66l-14.29,40.56H369.06l54.64-144.48c-5.68-3.87-10.72-8.58-12.21-12.32-3.48-8.69-7-15.64-7-15.64s-19-17.93-27.37-31.61a66.89,66.89,0,0,1-24.81,4.9q-20.93,0-37.63-7.27a80.44,80.44,0,0,1-28.19-20,88.61,88.61,0,0,1-17.6-30A109.84,109.84,0,0,1,262.8,3400a113.62,113.62,0,0,1,6.13-37.89,91,91,0,0,1,17.6-30.48,80.35,80.35,0,0,1,28.19-20.41,83.58,83.58,0,0,1,18.89-5.74c2.25-8.5,5-17.43,8.47-26.63H296.91a489.7,489.7,0,0,0-56,228.34c0,1.4,0,2.8,0,4.2h34.67l31.13,125.52h.51l29.85-125.52h39.29l-49,182.15H287.68l-30.87-124h-.51l-7,28.5a486.92,486.92,0,0,0,95.21,211.22H522.61C519,3799.07,510.88,3782.87,494.92,3774.9Z"/><path class="cls-3" d="M667,3548.52q-6.88-6-20.67-6H602.49v51.28h43.88q13.78,0,20.67-6.12t6.89-19.9Q673.93,3554.52,667,3548.52Z"/><path class="cls-3" d="M887.31,3409.19H852.64v50h27.17C870.27,3432.63,879.25,3445.52,887.31,3409.19Z"/><path class="cls-3" d="M664.23,3629q-6.63-6.63-21.68-6.63h-1c8.18,12.22,15.84,25.47,16.78,27.36,1.74,3.48,1.74,15.64,3.48,15.64s7-1.73,10.43-1.73a11.25,11.25,0,0,1,2.26.24q-.65-7.17-1.58-14Q670.86,3635.64,664.23,3629Z"/><path class="cls-11" d="M249.32,3598.06l-5.58,22.79a496.82,496.82,0,0,0,88,188.43h12.75A486.92,486.92,0,0,1,249.32,3598.06Z"/><path class="cls-11" d="M231.75,3536.61l6.43-25.21H241c0-1.4,0-2.8,0-4.2a489.7,489.7,0,0,1,56-228.34H285.53a500,500,0,0,0-54.66,228.34C230.87,3517.05,231.19,3526.85,231.75,3536.61Z"/><path class="cls-8" d="M437.08,3623.14h44.23l-23-66.84h-.51l-3,8.46c-.58,11.84-3.37,32.83-3.37,32.83S440.93,3603.92,437.08,3623.14Z"/><path class="cls-11" d="M506.12,3456.64a18,18,0,0,1-2.23-2.14v2.14Z"/><path class="cls-8" d="M728.66,3785.65c-2.54-9,7.89-36.83,14.84-42s13.91-12.17,12.17-29.55-.14-19.07-27-23.44c0,0-9.5-.9-9.5-6.11,0-2.22-1.89-4.74-5.38-6.78.37,2.24.81,4.41,1.35,6.51a26.68,26.68,0,0,0,4.21,9.31H679.29a70.22,70.22,0,0,1-4.09-20.66c-.19-3-.44-6-.71-9a11.25,11.25,0,0,0-2.26-.24c-3.48,0-8.69,1.73-10.43,1.73s-1.74-12.16-3.48-15.64c-.94-1.89-8.6-15.14-16.78-27.36h-39v71.17h-40v-110.5c-15.41-7.06-29.27-16.54-29.27-27.18,0-22.6,20.86-22.6,27.81-41.72a44.85,44.85,0,0,0,1.77-23.83H463.84V3308.16h40.05v18.74c18-15.21,24.93-34.06,38-42.2,4.61-2.89,5.58-4.62,5.72-5.84H342.08c-3.43,9.2-6.22,18.13-8.47,26.63a102.73,102.73,0,0,1,18.74-1.66,88.42,88.42,0,0,1,27.17,4.21,76.92,76.92,0,0,1,23.73,12.37,66.9,66.9,0,0,1,25.89,47.71H390.87q-3.57-15.32-13.77-23t-24.75-7.66q-13.53,0-23,5.23c-1.15.64-2.24,1.33-3.31,2-2.83,23.79-1.51,39-1.51,39s0,27.81,17.38,55.62c6.69,10.7,12.08,17.27,16.2,21.32,10.48-.86,18.81-4.11,24.94-9.82q10.85-10.07,12.63-29.21H355.41v-29.85H432v98.48H406.44l-4.09-20.66q-10.71,13.77-23.72,19.26l-1.47.58c8.39,13.68,27.37,31.61,27.37,31.61s3.48,6.95,7,15.64c1.49,3.74,6.53,8.45,12.21,12.32l14.24-37.67H479l68.11,182.15H505.55L491.77,3653h-55.6c.46,25.23-2.5,29.32,8.34,54.11,12.17,27.82,26.08,55.63,50.41,67.8,16,8,24,24.17,27.69,34.38H727.05C729.43,3799.35,729.75,3789.53,728.66,3785.65Z"/><path class="cls-11" d="M1051.18,3804.45c2.6,4.34,9.54-1.72,12.8-3.25v-48.79C1054.87,3781.14,1047.33,3798,1051.18,3804.45Z"/><path class="cls-11" d="M1064,3807c-.31.7-.65,1.47-1.06,2.31H1064Z"/><path class="cls-8" d="M1131.14,3350.75c-26.07-33-20.86-38.24-36.5-40a83.52,83.52,0,0,0-11.28-.32l67.26,179.87H1109l-13.77-40.56h-68.12l-14.29,40.56h-40.3l63.93-169.08c-6.33-4.74-3.24-6.7-18.33-10.47-20.86-5.21-19.12,19.12-20.86-5.21-1.33-18.72,16.86-23.31,11.89-26.7H969.71c-16,6.33-28.12,19.27-35,28.43-2.3,3.07-4.26,4.45-5.92,5A47,47,0,0,1,940.4,3318a34.93,34.93,0,0,1,11.86,13.9q4.22,8.67,4.21,21.43,0,13.79-6.25,23t-18.49,15q16.83,4.86,25.13,17t8.29,29.21q0,13.78-5.36,23.85a46.43,46.43,0,0,1-14.41,16.46,63.84,63.84,0,0,1-20.67,9.44,93.19,93.19,0,0,1-23.85,3.06H888.63c.17,5.88-1.57,10-2.5,21.08h56.18v70.78a11.13,11.13,0,0,1,4.57,3.24c7,8.69-3.47,12.17,10.43,15.65,13,3.24.22-5.63,19.7-9.66v-80h40v51.68a17,17,0,0,1,9.78-2s5.22,3.47,3.48,13.9,19.12-3.47,19.12-3.47a10,10,0,0,1,2.32-.75V3511.4h39.8l30.19,48.53h46.34V3511.4h33.64c.09-1.34.18-2.73.27-4.2.41-6.4.75-12,1-16.88h-37.1v-73.11l-3.5-7.36C1145.05,3373.35,1157.22,3383.78,1131.14,3350.75Z"/><path class="cls-11" d="M1051.18,3307.29c-3.73-3.73-6-2.45-6.69.87h7.78A7.7,7.7,0,0,1,1051.18,3307.29Z"/><path class="cls-8" d="M906.73,3458.05a27.51,27.51,0,0,0,9.43-3.83,19.28,19.28,0,0,0,6.51-7.27q2.43-4.59,2.42-11.74,0-14-7.9-20t-20.93-6h-9c-8.06,36.33-17,23.44-7.5,50H895.5A53.93,53.93,0,0,0,906.73,3458.05Z"/><polygon class="cls-8" points="1061.84 3353.07 1061.33 3353.07 1037.6 3419.91 1084.8 3419.91 1061.84 3353.07"/><path class="cls-11" d="M1051.76,3611.48v-4.7C1051.45,3607.76,1051.43,3609,1051.76,3611.48Z"/><path class="cls-11" d="M821.72,3750.56c1.74,52.15,5.22,8.69,10.43,7s12.17-15.64,8.7-27.81c-3.13-10.95-4.84-10.65,12-36.15H833.06C844.85,3697.66,820.29,3707.57,821.72,3750.56Z"/><path class="cls-11" d="M783.63,3668.68v9.56c4.59.64,7.14.31,8.54,4.53,1.74,5.21,1.74,3.47,8.69,3.47s19.13,5.22,19.13,5.22c3.41.32,6.19.65,8.41,1l-11.32-32.42C810.23,3664,800.14,3667.86,783.63,3668.68Z"/><path class="cls-11" d="M841.06,3807.92c-1.53-1.73-5.43,0-10.83,0s.19-15.64-24.15-17.38-29.55,17.38-29.55,17.38v1.36h63.3C840.94,3808.81,841.45,3808.37,841.06,3807.92Z"/><path class="cls-11" d="M733.07,3646c-5.56-23.45-12.24-.32-21.81.07.14,1.17.25,2.34.35,3.5,6.67,0,4.69-1.45,11,3.63,8.69,7-5.21-.74,10.43,10.93,5.45,4.06,9.62,7.33,13,9.88v-8.12C740.48,3662.1,735.43,3655.94,733.07,3646Z"/><path d="M368,3467.22s-3.3,0-9.88-6.5c-1.87.16-3.79.26-5.8.26q-13.53,0-23-5.23a43.69,43.69,0,0,1-15.31-13.9,60.44,60.44,0,0,1-8.55-19.52,93,93,0,0,1-2.67-22.32,100.09,100.09,0,0,1,2.67-23.22,61.54,61.54,0,0,1,8.55-20,43,43,0,0,1,12-12,286.53,286.53,0,0,1,7.53-39.28,83.58,83.58,0,0,0-18.89,5.74,80.35,80.35,0,0,0-28.19,20.41,91,91,0,0,0-17.6,30.48A113.62,113.62,0,0,0,262.8,3400a109.84,109.84,0,0,0,6.13,37.12,88.61,88.61,0,0,0,17.6,30,80.44,80.44,0,0,0,28.19,20q16.71,7.27,37.63,7.27a66.89,66.89,0,0,0,24.81-4.9c-2.38-3.88-3.92-7.42-3.92-10.11C373.24,3467.22,368,3467.22,368,3467.22Z"/><path d="M329.39,3342.73q9.44-5.22,23-5.23,14.55,0,24.75,7.66t13.77,23h38.27a66.9,66.9,0,0,0-25.89-47.71A76.92,76.92,0,0,0,379.52,3308a88.42,88.42,0,0,0-27.17-4.21,102.73,102.73,0,0,0-18.74,1.66,286.53,286.53,0,0,0-7.53,39.28C327.15,3344.06,328.24,3343.37,329.39,3342.73Z"/><path d="M402.35,3469.66l4.09,20.66H432v-98.48H355.41v29.85h40.31q-1.79,19.14-12.63,29.21c-6.13,5.71-14.46,9-24.94,9.82,6.58,6.49,9.88,6.5,9.88,6.5s5.21,0,5.21,12.17c0,2.69,1.54,6.23,3.92,10.11l1.47-.58Q391.64,3483.43,402.35,3469.66Z"/><path d="M484.49,3401.16c0,41.72,1.74,5.22,8.7,22.6s1.73,3.48,3.47,13.91c1,6.23,3.34,12.45,7.23,16.83V3326.9c-1.2,1-2.45,2-3.75,3C479.28,3345.54,484.49,3359.44,484.49,3401.16Z"/><path d="M592.67,3456.64H506.12a16.59,16.59,0,0,0,7.93,3.62c10.42,1.74,38.24,7,41.71,12.17a51.14,51.14,0,0,1,7,17.89h29.92Z"/><path d="M514.05,3460.26a16.59,16.59,0,0,1-7.93-3.62h-2.23v-2.14c-3.89-4.38-6.19-10.6-7.23-16.83-1.74-10.43,3.48,3.47-3.47-13.91s-8.7,19.12-8.7-22.6-5.21-55.62,15.65-71.27c1.3-1,2.55-2,3.75-3v-18.74H463.84v182.16h98.91a51.14,51.14,0,0,0-7-17.89C552.29,3467.22,524.47,3462,514.05,3460.26Z"/><path d="M630.43,3467.1a80.44,80.44,0,0,0,28.19,20q16.71,7.27,37.63,7.27,21.16,0,37.76-7.27a80.75,80.75,0,0,0,28.06-20,88.61,88.61,0,0,0,17.6-30A109.84,109.84,0,0,0,785.8,3400a113.62,113.62,0,0,0-6.13-37.89,91,91,0,0,0-17.6-30.48A80.68,80.68,0,0,0,734,3311.23q-16.59-7.41-37.76-7.4-20.93,0-37.63,7.4a80.35,80.35,0,0,0-28.19,20.41,91,91,0,0,0-17.61,30.48A113.88,113.88,0,0,0,606.7,3400a110.09,110.09,0,0,0,6.12,37.12A88.63,88.63,0,0,0,630.43,3467.1Zm19-90.31a61.54,61.54,0,0,1,8.55-20,43.32,43.32,0,0,1,15.31-14q9.44-5.22,23-5.23t23,5.23a43.49,43.49,0,0,1,15.31,14,61.31,61.31,0,0,1,8.54,20,99.55,99.55,0,0,1,2.68,23.22,92.53,92.53,0,0,1-2.68,22.32,60.21,60.21,0,0,1-8.54,19.52,43.86,43.86,0,0,1-15.31,13.9q-9.44,5.23-23,5.23t-23-5.23a43.69,43.69,0,0,1-15.31-13.9,60.44,60.44,0,0,1-8.55-19.52,93,93,0,0,1-2.68-22.32A100.09,100.09,0,0,1,649.43,3376.79Z"/><path class="cls-3" d="M762.07,3331.64A80.68,80.68,0,0,0,734,3311.23q-16.59-7.41-37.76-7.4-20.93,0-37.63,7.4a80.35,80.35,0,0,0-28.19,20.41,91,91,0,0,0-17.61,30.48A113.88,113.88,0,0,0,606.7,3400a110.09,110.09,0,0,0,6.12,37.12,88.63,88.63,0,0,0,17.61,30,80.44,80.44,0,0,0,28.19,20q16.71,7.27,37.63,7.27,21.16,0,37.76-7.27a80.75,80.75,0,0,0,28.06-20,88.61,88.61,0,0,0,17.6-30A109.84,109.84,0,0,0,785.8,3400a113.62,113.62,0,0,0-6.13-37.89A91,91,0,0,0,762.07,3331.64Z"/><path class="cls-3" d="M915.39,3349.94a17.06,17.06,0,0,0-6.13-6.37,26.07,26.07,0,0,0-8.82-3.19,58.86,58.86,0,0,0-10.34-.89H852.56V3382h39.93c6.25-27.33,9.49-2.67,23.91-13.05a26.81,26.81,0,0,0,1.28-8.61A21.13,21.13,0,0,0,915.39,3349.94Z"/><path class="cls-12" d="M547.58,3278.86c-.14,1.22-1.11,2.95-5.72,5.84-13,8.14-20,27-38,42.2v127.6a18,18,0,0,0,2.23,2.14h86.55v33.68H562.75a44.85,44.85,0,0,1-1.77,23.83c-7,19.12-27.81,19.12-27.81,41.72,0,10.64,13.86,20.12,29.27,27.18V3511.4h98.22a58.75,58.75,0,0,1,22.07,3.95,51,51,0,0,1,16.84,10.84,47.29,47.29,0,0,1,10.71,15.95,51,51,0,0,1,3.7,19.52q0,16.07-6.76,27.8t-22.07,17.86v.51a31.12,31.12,0,0,1,12.25,6.25,34.82,34.82,0,0,1,7.91,10,46.57,46.57,0,0,1,4.46,12.63c.64,3.14,1.13,6.29,1.49,9.43,9.57-.39,16.25-23.52,21.81-.07,2.36,9.92,7.41,16.08,13,19.89V3511.4h56.39l42.6,125.26h.51l40.31-125.26h.2c.93-11,2.67-15.2,2.5-21.08H812.46V3308.41h.12v-.25h85.73a113.43,113.43,0,0,1,23.72,2.3,60.61,60.61,0,0,1,6.76,1.86c1.66-.58,3.62-2,5.92-5,6.88-9.16,19-22.1,35-28.43Zm232.09,158.27a88.61,88.61,0,0,1-17.6,30,80.75,80.75,0,0,1-28.06,20q-16.59,7.27-37.76,7.27-20.93,0-37.63-7.27a80.44,80.44,0,0,1-28.19-20,88.63,88.63,0,0,1-17.61-30A110.09,110.09,0,0,1,606.7,3400a113.88,113.88,0,0,1,6.12-37.89,91,91,0,0,1,17.61-30.48,80.35,80.35,0,0,1,28.19-20.41q16.71-7.41,37.63-7.4,21.16,0,37.76,7.4a80.68,80.68,0,0,1,28.06,20.41,91,91,0,0,1,17.6,30.48A113.62,113.62,0,0,1,785.8,3400,109.84,109.84,0,0,1,779.67,3437.13Z"/><path class="cls-8" d="M892.49,3382h.68q10.73,0,17.62-5.1a15.9,15.9,0,0,0,5.61-8C902,3379.37,898.74,3354.71,892.49,3382Z"/><path d="M888.59,3490.32c-.16-5.51-2-12.55-7.81-28.28-.37-1-.71-1.91-1-2.8H852.56V3409.3h34.7c.75-3.38,1.5-7.18,2.22-11.49,1.1-6.58,2.08-11.74,3-15.77H852.56v-42.55H890.1a58.86,58.86,0,0,1,10.34.89,26.07,26.07,0,0,1,8.82,3.19,17.06,17.06,0,0,1,6.13,6.37,21.13,21.13,0,0,1,2.29,10.44,26.81,26.81,0,0,1-1.28,8.61c.3-.21.61-.44.92-.69,17.4-13.89,3.48-12.15,3.48-39.93,0-21.64,2.11-13.77,8-15.82a62.86,62.86,0,0,0-6.76-1.85,113.85,113.85,0,0,0-23.76-2.29H812.58v181.91Z"/><rect class="cls-13" x="812.46" y="3308.41" width="0.12" height="181.91"/><path d="M920.81,3328.15c0,27.82,13.9,26.08-3.48,40-.31.25-.62.48-.92.7a15.89,15.89,0,0,1-5.6,8q-6.9,5.11-17.61,5.1h-.68c-.92,4-1.9,9.21-3,15.8-.72,4.31-1.46,8.12-2.21,11.5h9q13,0,20.93,6t7.9,20q0,7.15-2.42,11.74a19.28,19.28,0,0,1-6.51,7.27,27.51,27.51,0,0,1-9.43,3.83,53.93,53.93,0,0,1-11.23,1.15H879.81c.32.89.65,1.82,1,2.8,5.8,15.75,7.64,22.8,7.8,28.32h12.23a93.19,93.19,0,0,0,23.85-3.06,63.84,63.84,0,0,0,20.67-9.44,46.43,46.43,0,0,0,14.41-16.46q5.36-10.07,5.36-23.85,0-17.09-8.29-29.21t-25.13-17q12.24-5.86,18.49-15t6.25-23q0-12.75-4.21-21.43A34.93,34.93,0,0,0,940.4,3318a47,47,0,0,0-11.61-5.67C922.92,3314.36,920.81,3306.48,920.81,3328.15Z"/><path d="M1046,3319.46c-1.62-4-2.1-8.42-1.48-11.3h-3.06l-5,13.08c2.43,1.81,6.23,4,13,6.91C1073.78,3338.58,1049.44,3328.15,1046,3319.46Z"/><path d="M1083.36,3310.45l-.86-2.29h-30.23C1058.23,3312.42,1071,3310.76,1083.36,3310.45Z"/><path d="M1012.85,3490.32l14.29-40.56h68.12l13.77,40.56h41.59l-67.26-179.87c-12.36.31-25.13,2-31.09-2.29h-7.78c-.62,2.88-.14,7.27,1.48,11.3,3.47,8.69,27.81,19.12,3.47,8.69-6.73-2.88-10.53-5.1-13-6.91l-63.93,169.08Zm48.48-137.25h.51l23,66.84h-47.2Z"/><path d="M1206,3456.64V3370.4a486.5,486.5,0,0,0-22.56-62.24h-17.49v109.05c12.6,26.65,5.19,12.69,5.19,23.93,0,12.17,8.69,38.25,13.91,26.08s15.64-52.15,17-30.27c1.2,19.58,3.36,11.66,1,53.37h21.83q-.55-16.93-2.25-33.68Z"/><path d="M1206,3308.16H1194.4q6.24,14.46,11.58,29.27Z"/><path d="M1294.76,3490.32v-33.68h-62q1.65,16.72,2.19,33.68Z"/><path d="M1224.86,3490.32H1235q-.56-16.93-2.19-33.68h-10.16Q1224.31,3473.37,1224.86,3490.32Z"/><path d="M1206,3370.4v-33q-5.31-14.82-11.58-29.27h-11A486.5,486.5,0,0,1,1206,3370.4Z"/><path d="M1203,3490.32c2.33-41.71.17-33.79-1-53.37-1.33-21.88-11.76,18.1-17,30.27s-13.91-13.91-13.91-26.08c0-11.24,7.41,2.72-5.19-23.93v73.11Z"/><path d="M206.55,3635.39H206l-28.83-124H137.15l48.22,182.15h40.57l17.8-72.7a503.42,503.42,0,0,1-12-84.24Z"/><path d="M256.81,3569.56l30.87,124h39.79l49-182.15H337.17l-29.85,125.52h-.51L275.68,3511.4H241a497.35,497.35,0,0,0,8.31,86.66l7-28.5Z"/><path d="M238.18,3511.4l-6.43,25.21a503.42,503.42,0,0,0,12,84.24l5.58-22.79A497.35,497.35,0,0,1,241,3511.4Z"/><path d="M437.08,3623.14h-3l20.73-58.38c.07-1.36.1-2.6.1-3.67,0-10.43-6.95-8.7-12.16-5.22-3,2-11.58-1.68-19.08-6.8l-54.64,144.48h40.31L423.66,3653h12.51c-.06-3.07-.16-6.43-.35-10.2A80.06,80.06,0,0,1,437.08,3623.14Z"/><path d="M505.55,3693.55h41.58L479,3511.4H437.94l-14.24,37.67c7.5,5.12,16.11,8.78,19.08,6.8,5.21-3.48,12.16-5.21,12.16,5.22,0,1.07,0,2.31-.1,3.67l3-8.46h.51l23,66.84H437.08a80.06,80.06,0,0,0-1.26,19.65c.19,3.77.29,7.13.35,10.2h55.6Z"/><path d="M679.18,3625.4c1.74,5.22,10.43-3.47,24.34,15.65,2.78,3.82,5.35,5.14,7.74,5-.36-3.14-.85-6.29-1.49-9.43a46.57,46.57,0,0,0-4.46-12.63,34.82,34.82,0,0,0-7.91-10,31.12,31.12,0,0,0-12.25-6.25v-.51q15.32-6.12,22.07-17.86t6.76-27.8a51,51,0,0,0-3.7-19.52,47.29,47.29,0,0,0-10.71-15.95,51,51,0,0,0-16.84-10.84,58.75,58.75,0,0,0-22.07-3.95H562.44v71.65c17.32,7.93,36.58,12.8,40.26,12.8,6.95,0,12.17,1.74,20.86,5.22,4,1.58,11.15,11.09,18,21.31h1q15,0,21.68,6.63t8.68,20.92q.95,6.78,1.58,14c2.58.54,4.69,1.88,4.69,3.23,0,1.74,1.74,3.48,1.74,7s10.43,0,10.43,0c10-1,17.69.88,22.43,3.65-.27-1.66-.51-3.36-.69-5.1q-.65-6.12-.89-12t-.51-10.2c0-.28-.06-.56-.08-.85a85.77,85.77,0,0,1-11.81-.9C678.69,3645.9,677.45,3620.19,679.18,3625.4ZM667,3587.68q-6.88,6.12-20.67,6.12H602.49v-51.28h43.88q13.78,0,20.67,6t6.89,19.26Q673.93,3581.55,667,3587.68Z"/><path d="M691.35,3674.08s-10.43,3.47-10.43,0-1.74-5.22-1.74-7c0-1.35-2.11-2.69-4.69-3.23.27,3,.52,6,.71,9a70.22,70.22,0,0,0,4.09,20.66h40.05a26.68,26.68,0,0,1-4.21-9.31c-.54-2.1-1-4.27-1.35-6.51C709,3675,701.36,3673.07,691.35,3674.08Z"/><path d="M623.56,3601.07c-8.69-3.48-13.91-5.22-20.86-5.22-3.68,0-22.94-4.87-40.26-12.8v110.5h40v-71.17h39C634.71,3612.16,627.51,3602.65,623.56,3601.07Z"/><path d="M703.52,3641.05c-13.91-19.12-22.6-10.43-24.34-15.65s-.49,20.5,20.62,23.29a85.77,85.77,0,0,0,11.81.9c-.1-1.16-.21-2.33-.35-3.5C708.87,3646.19,706.3,3644.87,703.52,3641.05Z"/><path d="M770.47,3676s-2.63,5-9.59,5c-4.53,0-8.34-2.23-14.76-7v19.52h37.51v-15.31a34.25,34.25,0,0,1-3.62-.69A62.38,62.38,0,0,0,770.47,3676Z"/><path d="M828.78,3693.55h4.28a29.67,29.67,0,0,0-4.66-1.08Z"/><path d="M845.62,3636.66h-.51l-42.6-125.26H746.12v154.51c11,7.45,24.35,5.94,24.35,5.94,2-1.56,4.5-3,6.61-3,2.3,0,4.46-.07,6.55-.18V3565.74h.51l32.94,94.31c11.13-6.42,13.81-13,22-6.83,13.9,10.43,43.68-4.31,20.1,30.87-2.35,3.51-4.44,6.64-6.31,9.46h6.75l44.65-129.09h.51v129.09h37.5V3582.18c-8.9-3.69-23.53-.85-25-12.4-1.74-13.91-1.74-10.43-8.69-19.12S884.3,3535,886,3512.41c0-.35.06-.67.09-1h-.2Z"/><path d="M908.64,3550.66c7,8.69,7,5.21,8.69,19.12,1.45,11.55,16.08,8.71,25,12.4V3511.4H886.13c0,.34-.06.66-.09,1C884.3,3535,901.69,3542,908.64,3550.66Z"/><path d="M839.11,3653.22c-8.22-6.16-10.9.41-22,6.83l11.32,32.42a29.67,29.67,0,0,1,4.66,1.08H852.9c1.87-2.82,4-6,6.31-9.46C882.79,3648.91,853,3663.65,839.11,3653.22Z"/><path d="M777.08,3668.86c-2.11,0-4.56,1.43-6.61,3V3676a62.38,62.38,0,0,1,9.54,1.52,34.25,34.25,0,0,0,3.62.69v-9.56C781.54,3668.79,779.38,3668.86,777.08,3668.86Z"/><path d="M770.47,3676c-2.62-.22-4.37-.22-4.37-.22a37,37,0,0,1,4.37-4s-13.32,1.51-24.35-5.94V3674c6.42,4.77,10.23,7,14.76,7C767.84,3681,770.47,3676,770.47,3676Z"/><path d="M766.1,3675.81s1.75,0,4.37.22v-4.18A37,37,0,0,0,766.1,3675.81Z"/><path d="M1017.06,3693.55V3563.08c-8.8,4.29-16.29,13.65-16.29,13.65s7,10.43-19.12,13.91c-1.73.23-3.26.49-4.64.77v102.14Z"/><path d="M1000.77,3576.73s7.49-9.36,16.29-13.65V3511.4H977v80c1.38-.28,2.91-.54,4.64-.77C1007.72,3587.16,1000.77,3576.73,1000.77,3576.73Z"/><path d="M1193.72,3542c-1.21,6.86-2.32,12.77-3.37,18h15.25V3511.4h-3.87C1198.16,3565.37,1198.81,3513.13,1193.72,3542Z"/><path d="M1058.13,3588.9c3.84-17.89-2.66-18.87-6.37-18.13v36C1052.52,3604.33,1055,3603.46,1058.13,3588.9Z"/><path d="M1051.76,3611.48v82.07H1064v-49.18c-5-10.4-9.78-18.87-11.06-25.92C1052.36,3615.36,1052,3613.15,1051.76,3611.48Z"/><path d="M1058.13,3588.9c-3.12,14.56-5.61,15.43-6.37,17.88v4.7c.22,1.67.6,3.88,1.16,7,1.28,7.05,6.1,15.52,11.06,25.92v-84.44h57.77l-30.19-48.53h-39.8v59.37C1055.47,3570,1062,3571,1058.13,3588.9Z"/><path d="M1168.09,3559.93h22.26c1.05-5.2,2.16-11.11,3.37-18,5.09-28.83,4.44,23.41,8-30.56h-33.64Z"/><path d="M1372.83,3523.64a77.14,77.14,0,0,0-23.73-12.37,88.42,88.42,0,0,0-27.17-4.21q-20.92,0-37.63,7.4a80.35,80.35,0,0,0-28.19,20.41,89.59,89.59,0,0,0-15.51,25.06h43.11a43.29,43.29,0,0,1,15.26-14q9.43-5.23,23-5.23,14.55,0,24.75,7.65a33.59,33.59,0,0,1,9.61,11.54h40.46a63.13,63.13,0,0,0-6.45-16.13A67.87,67.87,0,0,0,1372.83,3523.64Z"/><polygon points="66.02 85.59 94.47 -0.11 67.22 -0.11 51.34 49.39 51 49.39 35.32 -0.11 8.07 -0.11 35.8 85.59 66.02 85.59"/><polygon points="209.44 85.59 209.44 63.05 143.71 63.05 143.71 33.17 202.79 33.17 202.79 12.34 143.71 12.34 143.71 -0.11 116.9 -0.11 116.9 85.59 209.44 85.59"/><path d="M333.58,3.8c-.14-1.34-.33-2.64-.55-3.91H306.8A35.82,35.82,0,0,1,308,3.8Z"/><path d="M226.35,50a59.35,59.35,0,0,0,11.78,20.06A53.87,53.87,0,0,0,257,83.45a62.38,62.38,0,0,0,25.18,4.87,45.08,45.08,0,0,0,17.59-3.67q8.7-3.68,15.88-12.89l2.73,13.83h17.07V19.68H284.23v20h27q-1.2,12.8-8.45,19.55T282.18,66a31.35,31.35,0,0,1-15.37-3.5,29.22,29.22,0,0,1-10.24-9.31,40.31,40.31,0,0,1-5.72-13.06,61.79,61.79,0,0,1-1.79-14.94A66.54,66.54,0,0,1,250.85,9.6a43.08,43.08,0,0,1,3.56-9.71H226.32a76.14,76.14,0,0,0-4.07,25.25A73.74,73.74,0,0,0,226.35,50Z"/><polygon points="371.31 85.59 380.87 58.44 426.46 58.44 435.68 85.59 463.51 85.59 431.46 -0.11 406.21 -0.11 419.46 38.46 387.87 38.46 401.56 -0.11 376.74 -0.11 344.33 85.59 371.31 85.59"/><polygon points="499.19 85.59 499.19 3.97 499.54 3.97 550.25 85.59 577.05 85.59 577.05 -0.11 551.95 -0.11 551.95 45.46 551.61 45.46 523.26 -0.11 474.1 -0.11 474.1 85.59 499.19 85.59"/><rect x="600.62" y="-0.11" width="26.81" height="85.7"/><path d="M658.84,21.73a45.51,45.51,0,0,0,11.61,6.4,114.48,114.48,0,0,0,13.32,4.18c4.44,1.26,8.82,2.39,13.15,3.42a83.31,83.31,0,0,1,11.61,3.58,25.2,25.2,0,0,1,8.28,5.13,10.71,10.71,0,0,1,3.16,8,11.76,11.76,0,0,1-2.4,7.6,16.63,16.63,0,0,1-6,4.69,26.73,26.73,0,0,1-7.68,2.31,53.37,53.37,0,0,1-7.69.6A40.87,40.87,0,0,1,686,66.38a25.5,25.5,0,0,1-8.63-3.93,19.41,19.41,0,0,1-5.89-6.92,22.31,22.31,0,0,1-2.22-10.41h-26q-.16,11.27,4.1,19.46a38.16,38.16,0,0,0,11.52,13.49,49.17,49.17,0,0,0,16.74,7.77,77,77,0,0,0,19.55,2.48,74.89,74.89,0,0,0,21.94-2.91A46.16,46.16,0,0,0,733,77.3a33.66,33.66,0,0,0,9.64-12.37,37.18,37.18,0,0,0,3.25-15.54q0-10.24-4.36-16.82a36.31,36.31,0,0,0-10.33-10.5,45.11,45.11,0,0,0-12-5.72c-4-1.2-7.2-2-9.48-2.48Q698.28,11,691.2,9.09a68.44,68.44,0,0,1-11.1-3.75c-2.68-1.26-4.47-2.62-5.38-4.1a7.32,7.32,0,0,1-.65-1.35H647.46a28.39,28.39,0,0,0,3.1,12A30,30,0,0,0,658.84,21.73Z"/><path d="M741.82,0V-.11h-26c0,.05,0,.1,0,.15Z"/><polygon points="786.89 85.59 786.89 0.04 787.24 0.04 817.12 85.59 837.78 85.59 867.42 -0.11 843.71 -0.11 828.38 47.51 828.04 47.51 811.85 -0.11 761.79 -0.11 761.79 85.59 786.89 85.59"/><rect x="868" y="-0.11" width="25.1" height="85.7"/><path class="cls-14" d="M1440,1667s-111-91.58-389,37c-7.92,3.66-93,52.82-99.83,56.62A218.05,218.05,0,0,0,914,1786.1c-148.9,129.41,191,357.9,191,357.9s198.9,165.51,213,218c0,0,118.09,226,121.22,290S1440,1667,1440,1667Z"/></svg>