<svg id="레이어_1" data-name="레이어 1" xmlns="http://www.w3.org/2000/svg" viewBox="0 0 1440 4100"><defs><style>.cls-1{fill:#05205d;}.cls-2{fill:#021a53;}.cls-3{fill:#0c316f;}.cls-4{fill:#306780;}.cls-11,.cls-5{fill:none;}.cls-6{fill:#2064e5;}.cls-7{fill:#f7e1af;}.cls-8{fill:#e5bbef;}.cls-9{fill:#433e40;}.cls-10{fill:#fff;}.cls-11{stroke:#debeeb;stroke-miterlimit:10;stroke-width:9px;}.cls-12{fill:#bf7fb6;}</style></defs><rect class="cls-1" x="-4" width="1446" height="4155"/><path class="cls-2" d="M0,498s188.5-28.61,248.5-186.25S514.41,117.4,514.41,117.4,689.49,58.74,689.49-1H-1Z"/><path class="cls-3" d="M835.18,260.38c11.17-7.87,604.58-68.76,604.82-55.38,1,52,0,198.88,0,198.88s-445.76-92.5-607.47-26.74c-33.61,13.66-84.9,28.74-65.41-26C779.5,316.4,804.73,281.83,835.18,260.38Z"/><polygon class="cls-4" points="1206.31 538.47 1194.28 485.92 1222.64 503.68 1239.99 448.8 1244.36 503.81 1267.96 480.31 1260.17 532.48 1206.31 538.47"/><path class="cls-4" d="M212,1090c146,53,220,100,212,174s17,31-127,163-127-14-144,117-91,27-91,27-36,15-51,66-24,32-24,32V939.41S66,1037,212,1090Z"/><path class="cls-5" d="M206.93,2168q-5.73-4.34-15.14-4.34H160.23v36.18h31a38.28,38.28,0,0,0,8.12-.84,19.93,19.93,0,0,0,6.83-2.76,14,14,0,0,0,4.7-5.26,18.14,18.14,0,0,0,1.76-8.5Q212.65,2172.33,206.93,2168Z"/><path class="cls-5" d="M202.31,2140.21q5-3.69,5-12a15.43,15.43,0,0,0-1.66-7.57,12.42,12.42,0,0,0-4.43-4.61,18.86,18.86,0,0,0-6.37-2.31,42.33,42.33,0,0,0-7.48-.64H160.23v30.82h29.35Q197.33,2143.9,202.31,2140.21Z"/><path class="cls-6" d="M1440,1580s-181.38,40.84-451.5,169.42c-7.7,3.66-14.82,7.4-21.46,11.2A211.2,211.2,0,0,0,931,1786.1c-144.69,129.41,182.13,310,182.13,310S1307.33,2245,1321,2297.51c0,0,117.2,290.49,120.23,354.49S1440,1580,1440,1580Z"/><path class="cls-7" d="M390.46,4106c-12.89-51.37-35.92-111.66-75.59-178.6q-5.5-9.26-11.2-17.23H249.16a29,29,0,0,1,29-29h0c-98.45-88.4-226.54,42.37-282.18,110V4106Z"/><path class="cls-8" d="M1086.82,602.88l-35.1,213c49.28-30.89,106-68.41,156.35-106.56Z"/><path class="cls-9" d="M1343,564.05c-8.86,39.29-65.85,92.89-135,145.29C1157.74,747.49,1101,785,1051.72,815.9c-70,43.89-124.92,74.41-124.92,74.41C831.11,893.12,769.5,1020,769.5,1020h0s669.06,112.34,670.5,58V889l1-293S1367.5,455.5,1343,564.05Z"/><polygon class="cls-10" points="109.02 85.59 137.47 -0.11 110.22 -0.11 94.34 49.39 94 49.39 78.32 -0.11 51.08 -0.11 78.8 85.59 109.02 85.59"/><polygon class="cls-10" points="252.44 85.59 252.44 63.05 186.71 63.05 186.71 33.17 245.79 33.17 245.79 12.34 186.71 12.34 186.71 -0.11 159.9 -0.11 159.9 85.59 252.44 85.59"/><path class="cls-10" d="M269.35,50a59.35,59.35,0,0,0,11.78,20.06A53.87,53.87,0,0,0,300,83.45a62.38,62.38,0,0,0,25.18,4.87,45.08,45.08,0,0,0,17.59-3.67q8.7-3.68,15.88-12.89l2.73,13.83h17.07V19.68H327.23v20h27q-1.2,12.8-8.45,19.55T325.18,66a31.35,31.35,0,0,1-15.37-3.5,29.22,29.22,0,0,1-10.24-9.31,40.1,40.1,0,0,1-5.72-13.06,61.79,61.79,0,0,1-1.79-14.94A66.54,66.54,0,0,1,293.85,9.6a43.08,43.08,0,0,1,3.56-9.71H269.32a76.14,76.14,0,0,0-4.07,25.25A73.74,73.74,0,0,0,269.35,50Z"/><path class="cls-10" d="M376.58,3.8c-.14-1.34-.33-2.64-.55-3.91H349.8A35.82,35.82,0,0,1,351,3.8Z"/><polygon class="cls-10" points="414.31 85.59 423.87 58.44 469.46 58.44 478.68 85.59 506.51 85.59 474.46 -0.11 449.21 -0.11 462.46 38.46 430.87 38.46 444.56 -0.11 419.74 -0.11 387.33 85.59 414.31 85.59"/><polygon class="cls-10" points="542.19 85.59 542.19 3.97 542.54 3.97 593.25 85.59 620.05 85.59 620.05 -0.11 594.95 -0.11 594.95 45.46 594.61 45.46 566.26 -0.11 517.1 -0.11 517.1 85.59 542.19 85.59"/><rect class="cls-10" x="643.62" y="-0.11" width="26.81" height="85.7"/><path class="cls-10" d="M784.82,0V-.11h-26c0,.05,0,.1,0,.15Z"/><path class="cls-10" d="M701.84,21.73a45.51,45.51,0,0,0,11.61,6.4,114.48,114.48,0,0,0,13.32,4.18c4.44,1.26,8.82,2.39,13.15,3.42a83.31,83.31,0,0,1,11.61,3.58,25.2,25.2,0,0,1,8.28,5.13,10.71,10.71,0,0,1,3.16,8,11.76,11.76,0,0,1-2.4,7.6,16.63,16.63,0,0,1-6,4.69,26.73,26.73,0,0,1-7.68,2.31,53.37,53.37,0,0,1-7.69.6A40.87,40.87,0,0,1,729,66.38a25.5,25.5,0,0,1-8.63-3.93,19.41,19.41,0,0,1-5.89-6.92,22.31,22.31,0,0,1-2.22-10.41h-26q-.16,11.27,4.1,19.46a38.16,38.16,0,0,0,11.52,13.49,49.17,49.17,0,0,0,16.74,7.77,77,77,0,0,0,19.55,2.48,74.89,74.89,0,0,0,21.94-2.91A46.16,46.16,0,0,0,776,77.3a33.66,33.66,0,0,0,9.64-12.37,37.33,37.33,0,0,0,3.25-15.54q0-10.24-4.36-16.82a36.31,36.31,0,0,0-10.33-10.5,45.11,45.11,0,0,0-12-5.72c-4-1.2-7.2-2-9.48-2.48Q741.28,11,734.19,9.09A68.62,68.62,0,0,1,723.1,5.34c-2.68-1.26-4.47-2.62-5.38-4.1a7.32,7.32,0,0,1-.65-1.35H690.46a28.39,28.39,0,0,0,3.1,12A30,30,0,0,0,701.84,21.73Z"/><polygon class="cls-10" points="829.89 85.59 829.89 0.04 830.24 0.04 860.12 85.59 880.78 85.59 910.42 -0.11 886.71 -0.11 871.39 47.51 871.04 47.51 854.85 -0.11 804.79 -0.11 804.79 85.59 829.89 85.59"/><rect class="cls-10" x="911" y="-0.11" width="25.1" height="85.7"/><circle class="cls-11" cx="749" cy="3569" r="369"/><path class="cls-12" d="M584.24,3238.74s-66.19,60.61-104.89,120-33.55,118.7-33.55,118.7a86,86,0,0,0,12.9,41.28c12.9,20.65,19.36,20.65,19.36,20.65s3.87,0,3.87,9,23.22,31,23.22,31,2.58,5.16,5.16,11.61,19.35,16.78,23.22,14.2,9-3.87,9,3.87-2.58,27.09-2.58,27.09-12.91,7.74-11.62,33.55-2.58,27.09,6.46,47.73,19.35,41.29,37.41,50.32S594.75,3800,594.75,3800s-1.87,58.06,14.91,72.25,19.35,21.93,20.64,24.51,20.64,23.23,33.55,24.52,16,10.3,16,10.3,59.32,9.25,89.4,5.92S842.63,3926,842.63,3926s-34.28-6.07-39.44-6.07-5.16-5.16-29.68-5.16-87.73-1.29-89-5.16-18.06,0-6.45-20.65,11.61-21.93,16.77-23.22,1.29-24.52,2.58-29.68,15.48-23.22,31-23.22,19.25-30.49,17.36-37.18,5.86-27.33,11-31.2,10.32-9,9-21.94-.1-14.15-20-17.39c0,0-7-.67-7-4.54s-7.74-9-20.65-7.74c0,0-7.74,2.58-7.74,0S709,3689,709,3687.7s-2.58-2.58-5.16-2.58-6.45,1.29-7.74,1.29-1.29-9-2.58-11.61-19.35-33.55-25.8-36.13-10.32-3.87-15.49-3.87-51.6-12.9-51.6-29.67,15.48-16.78,20.64-31-1.29-27.09-3.87-31-23.23-7.75-31-9-11.61-9-12.9-16.77,2.58,2.58-2.58-10.32-6.45,14.19-6.45-16.77-3.87-41.29,11.61-52.9,20.65-27.1,31-33.55-3.87-5.16,14.19-9,37.42-6.45,41.29-19.35,25.8,1.29,31,9S683.2,3400,718,3397.4s-5.16-3.87-6.45-9-11.61,0,1.29-20.64,3.87-11.61,10.33-12.9,6.45-1.3,7.74-9-27.1-6.45-33.55-12.9-7.74-2.58-3.87-10.32,5.16-5.16-2.58-15.48-16.77-7.74-12.9-24.52,19.35-15.48,31-20.64,15.49-2.58,15.49-11.61,0-15.48-18.07-16.77.55-1.29-30.69,0-51.38,4.82-31.63-7.27,5.55-14.67,30.07-14.67,10.32-2.58,50.32-2.58,43.78-1.29,47,0-22.54-9-22.54-9S642.68,3202.65,584.24,3238.74Z"/><path class="cls-12" d="M947.69,3620.61s10.32-12.9,19.36-11.61c0,0,3.87,2.58,2.58,10.32s14.19-2.58,14.19-2.58,10.32-5.16,6.45,12.9-6.45,7.74-3.87,21.93,24.51,36.13,15.48,73.55-20.64,58.05-16.77,64.51,20.64-18.07,2.58,15.48-25.81,52.9,3.87,18.06,9,14.19,41.29-54.19,29.67-31,34.83-77.41,11.61-47.74,14.19-56.77,5.16-18.06,9-40,3.26,19.36,6.14-25.8,1-35.9,0-52.14-8.72,13.43-12.6,22.47-10.32-10.33-10.32-19.36,6.45,3.87-6.45-23.22-3.87-19.35-23.22-43.87-15.48-28.38-27.1-29.67-27.09,2.58-32.25-2.58-6.45,2.58-3.87,9,20.64,14.19,2.58,6.45-7.74-9-23.23-12.9-14.19,14.19-15.48-3.87,21.94-18.4,0-22.11-38.7,13.07-46.45,23.4-10.32-5.16-10.32,15.48,10.32,19.35-2.58,29.67-14.19-16.77-20.64,21.94-15.48,23.22-6.45,47.73,5.16,20.65,3.87,37.42,11.61,21.93,16.77,28.39,5.16,3.87,6.45,14.19,16.77,5.16,21.94,11.61-2.58,9,7.74,11.61-1.29-5.16,18.06-7.74S947.69,3620.61,947.69,3620.61Z"/><path class="cls-12" d="M781.67,3689c37.17,0,35.71-19.35,46-11.61s32.43-3.2,14.93,22.91-16.22,24.83-13.64,33.86-2.58,19.35-6.45,20.64-6.45,33.55-7.74-5.16,25.8-41.29-1.29-43.87c0,0-9-3.87-14.19-3.87s-5.16,1.29-6.45-2.58-3.87-2.58-9-3.87a48.45,48.45,0,0,0-10.33-1.29S778.21,3689,781.67,3689Z"/><path class="cls-12" d="M781.26,3792.21s3.87-14.2,21.93-12.91,13.92,12.91,17.93,12.91,6.9-1.29,8,0-7.9,2.58-14.35,5.16-5.16,5.16-7.74,7.74,0,7.74-12.9,3.87-12.9-1.29-12.9-9Z"/><path class="cls-12" d="M776.76,3691.21s-22.6,2.58-27.76-19.17-11.61,10.5-21.93-3.69-16.78-7.75-18.07-11.62-.36,15.22,15.3,17.29,10.51-1.8,17,3.36-3.87-.55,7.74,8.11S764.48,3698,769.64,3698a8,8,0,0,0,7.12-3.71Z"/></svg>