<svg id="레이어_1" data-name="레이어 1" xmlns="http://www.w3.org/2000/svg" viewBox="0 0 1440 4100"><defs><style>.cls-1{fill:#05205d;}.cls-2{fill:#021a53;}.cls-3{fill:#0c316f;}.cls-4{fill:#306780;}.cls-10,.cls-5{fill:none;}.cls-6{fill:#e5bbef;}.cls-7{fill:#433e40;}.cls-8{fill:#fff;}.cls-9{fill:#f7e1af;}.cls-10{stroke:#debeeb;stroke-miterlimit:10;stroke-width:9px;}.cls-11{fill:#bf7fb6;}.cls-12{fill:#debeeb;}.cls-13{font-size:12px;font-family:AdobeMyungjoStd-Medium-KSCpc-EUC-H, Adobe Myungjo Std;}</style></defs><rect class="cls-1" x="-88" y="-1080" width="1656" height="5375"/><path class="cls-2" d="M0,498s188.5-28.61,248.5-186.25S514.41,117.4,514.41,117.4,689.49,58.74,689.49-1H-1Z"/><path class="cls-3" d="M835.18,260.38c11.17-7.87,604.58-68.76,604.82-55.38,1,52,0,198.88,0,198.88s-445.76-92.5-607.47-26.74c-33.61,13.66-84.9,28.74-65.41-26C779.5,316.4,804.73,281.83,835.18,260.38Z"/><polygon class="cls-4" points="1206.31 538.47 1194.28 485.92 1222.64 503.68 1239.99 448.8 1244.36 503.81 1267.96 480.31 1260.17 532.48 1206.31 538.47"/><path class="cls-4" d="M225,1090c146,53,220,100,212,174s17,31-127,163-127-14-144,117-91,27-91,27-36,15-51,66-24,32-24,32V939.41S79,1037,225,1090Z"/><path class="cls-5" d="M206.93,2168q-5.73-4.34-15.14-4.34H160.23v36.18h31a38.28,38.28,0,0,0,8.12-.84,19.93,19.93,0,0,0,6.83-2.76,14,14,0,0,0,4.7-5.26,18.14,18.14,0,0,0,1.76-8.5Q212.65,2172.33,206.93,2168Z"/><path class="cls-5" d="M202.31,2140.21q5-3.69,5-12a15.43,15.43,0,0,0-1.66-7.57,12.42,12.42,0,0,0-4.43-4.61,18.86,18.86,0,0,0-6.37-2.31,42.33,42.33,0,0,0-7.48-.64H160.23v30.82h29.35Q197.33,2143.9,202.31,2140.21Z"/><path class="cls-6" d="M1086.82,602.88l-35.1,213c49.28-30.89,106-68.41,156.35-106.56Z"/><path class="cls-7" d="M1343,564.05c-8.86,39.29-65.85,92.89-135,145.29C1157.74,747.49,1101,785,1051.72,815.9c-70,43.89-124.92,74.41-124.92,74.41C831.11,893.12,769.5,1020,769.5,1020h0s669.06,112.34,670.5,58V889l1-293S1367.5,455.5,1343,564.05Z"/><polygon class="cls-8" points="66.02 85.59 94.47 -0.11 67.22 -0.11 51.34 49.39 51 49.39 35.32 -0.11 8.07 -0.11 35.8 85.59 66.02 85.59"/><polygon class="cls-8" points="209.44 85.59 209.44 63.05 143.71 63.05 143.71 33.17 202.79 33.17 202.79 12.34 143.71 12.34 143.71 -0.11 116.9 -0.11 116.9 85.59 209.44 85.59"/><path class="cls-8" d="M226.35,50a59.35,59.35,0,0,0,11.78,20.06A53.87,53.87,0,0,0,257,83.45a62.38,62.38,0,0,0,25.18,4.87,45.08,45.08,0,0,0,17.59-3.67q8.7-3.68,15.88-12.89l2.73,13.83h17.07V19.68H284.23v20h27q-1.2,12.8-8.45,19.55T282.18,66a31.35,31.35,0,0,1-15.37-3.5,29.22,29.22,0,0,1-10.24-9.31,40.1,40.1,0,0,1-5.72-13.06,61.79,61.79,0,0,1-1.79-14.94A66.54,66.54,0,0,1,250.85,9.6a43.08,43.08,0,0,1,3.56-9.71H226.32a76.14,76.14,0,0,0-4.07,25.25A73.74,73.74,0,0,0,226.35,50Z"/><path class="cls-8" d="M333.58,3.8c-.14-1.34-.33-2.64-.55-3.91H306.8A35.82,35.82,0,0,1,308,3.8Z"/><polygon class="cls-8" points="371.31 85.59 380.87 58.44 426.46 58.44 435.68 85.59 463.51 85.59 431.46 -0.11 406.21 -0.11 419.46 38.46 387.87 38.46 401.56 -0.11 376.74 -0.11 344.33 85.59 371.31 85.59"/><polygon class="cls-8" points="499.19 85.59 499.19 3.97 499.54 3.97 550.25 85.59 577.05 85.59 577.05 -0.11 551.95 -0.11 551.95 45.46 551.61 45.46 523.26 -0.11 474.1 -0.11 474.1 85.59 499.19 85.59"/><rect class="cls-8" x="600.62" y="-0.11" width="26.81" height="85.7"/><path class="cls-8" d="M741.82,0V-.11h-26c0,.05,0,.1,0,.15Z"/><path class="cls-8" d="M658.84,21.73a45.51,45.51,0,0,0,11.61,6.4,114.48,114.48,0,0,0,13.32,4.18c4.44,1.26,8.82,2.39,13.15,3.42a83.31,83.31,0,0,1,11.61,3.58,25.2,25.2,0,0,1,8.28,5.13,10.71,10.71,0,0,1,3.16,8,11.76,11.76,0,0,1-2.4,7.6,16.63,16.63,0,0,1-6,4.69,26.73,26.73,0,0,1-7.68,2.31,53.37,53.37,0,0,1-7.69.6A40.87,40.87,0,0,1,686,66.38a25.5,25.5,0,0,1-8.63-3.93,19.41,19.41,0,0,1-5.89-6.92,22.31,22.31,0,0,1-2.22-10.41h-26q-.16,11.27,4.1,19.46a38.16,38.16,0,0,0,11.52,13.49,49.17,49.17,0,0,0,16.74,7.77,77,77,0,0,0,19.55,2.48,74.89,74.89,0,0,0,21.94-2.91A46.16,46.16,0,0,0,733,77.3a33.66,33.66,0,0,0,9.64-12.37,37.33,37.33,0,0,0,3.25-15.54q0-10.24-4.36-16.82a36.31,36.31,0,0,0-10.33-10.5,45.11,45.11,0,0,0-12-5.72c-4-1.2-7.2-2-9.48-2.48Q698.28,11,691.19,9.09A68.62,68.62,0,0,1,680.1,5.34c-2.68-1.26-4.47-2.62-5.38-4.1a7.32,7.32,0,0,1-.65-1.35H647.46a28.39,28.39,0,0,0,3.1,12A30,30,0,0,0,658.84,21.73Z"/><polygon class="cls-8" points="786.89 85.59 786.89 0.04 787.24 0.04 817.12 85.59 837.78 85.59 867.42 -0.11 843.71 -0.11 828.39 47.51 828.04 47.51 811.85 -0.11 761.79 -0.11 761.79 85.59 786.89 85.59"/><rect class="cls-8" x="868" y="-0.11" width="25.1" height="85.7"/><path class="cls-9" d="M250,3934c0-16,12.13-52.81,28.14-52.81h0c-98.45-88.4-226.54,42.37-282.18,110V4106H390.46c-12.89-51.37-35.92-111.66-75.59-178.6q-5.5-9.26-11.2-17.23"/><circle class="cls-10" cx="731.9" cy="3506.88" r="497.88"/><path class="cls-11" d="M509.6,3061.27s-89.31,81.78-141.53,161.85-45.26,160.16-45.26,160.16,0,27.86,17.4,55.71,26.12,27.85,26.12,27.85,5.22,0,5.22,12.19,31.33,41.78,31.33,41.78,3.49,7,7,15.67,26.11,22.63,31.33,19.15,12.19-5.23,12.19,5.22-3.48,36.56-3.48,36.56-17.41,10.44-15.67,45.26-3.48,36.56,8.7,64.41S469,3762.79,493.41,3775s30.36,43.52,30.36,43.52-2.51,78.34,20.12,97.49,26.12,29.6,27.86,33.08,27.85,31.33,45.26,33.07,21.6,13.9,21.6,13.9,80,12.48,120.61,8,99-15.44,99-15.44-46.25-8.2-53.21-8.2-7-7-40-7-118.38-1.74-120.12-7-24.37,0-8.7-27.86,15.67-29.59,22.63-31.33,1.74-33.08,3.48-40,20.89-31.34,41.78-31.34,26-41.13,23.44-50.16,7.9-36.88,14.86-42.1,13.93-12.19,12.19-29.6-.14-19.09-27-23.47c0,0-9.51-.9-9.51-6.12s-10.45-12.19-27.86-10.45c0,0-10.44,3.49-10.44,0s-1.74-5.22-1.74-7-3.48-3.48-7-3.48-8.71,1.74-10.45,1.74-1.74-12.19-3.48-15.67-26.11-45.26-34.82-48.74-13.93-5.22-20.89-5.22-69.63-17.41-69.63-40,20.89-22.64,27.85-41.78-1.74-36.56-5.22-41.78-31.34-10.45-41.78-12.19-15.67-12.19-17.41-22.63,3.48,3.48-3.48-13.93-8.71,19.15-8.71-22.63-5.22-55.71,15.67-71.37,27.85-36.56,41.78-45.27-5.22-7,19.15-12.18,50.49-8.71,55.71-26.11,34.82,1.74,41.78,12.18-13.93,20.89,33.07,17.41-7-5.22-8.7-12.19-15.67,0,1.74-27.85,5.22-15.67,13.93-17.41,8.7-1.74,10.44-12.18S671,3197,662.27,3188.31s-10.44-3.48-5.22-13.93,7-7-3.48-20.89-22.63-10.44-17.41-33.08,26.11-20.89,41.78-27.85,20.89-3.48,20.89-15.67,0-20.89-24.37-22.63.74-1.74-41.41,0-69.33,6.51-42.69-9.8,7.5-19.79,40.58-19.79,13.92-3.48,67.89-3.48,59.07-1.74,63.48,0S731.9,3009,731.9,3009,588.45,3012.57,509.6,3061.27Z"/><path class="cls-11" d="M1000,3576.52s13.92-17.41,26.11-15.67c0,0,5.22,3.48,3.48,13.93s19.15-3.49,19.15-3.49,13.93-7,8.7,17.41-8.7,10.45-5.22,29.6,33.08,48.74,20.89,99.22-27.85,78.34-22.63,87.05,27.85-24.37,3.48,20.89-34.82,71.37,5.22,24.37,12.19,19.15,55.71-73.12,40-41.78,47-104.45,15.67-64.41,19.15-76.59,7-24.38,12.19-54,4.41,26.11,8.3-34.82,1.33-48.44,0-70.35-11.78,18.13-17,30.31-13.93-13.92-13.93-26.11,8.7,5.22-8.71-31.34-5.22-26.11-31.33-59.18-20.89-38.3-36.56-40-36.56,3.48-43.52-3.49-8.7,3.49-5.22,12.19,27.85,19.15,3.48,8.7-10.45-12.18-31.34-17.4-19.15,19.15-20.89-5.23,29.6-24.82,0-29.82-52.22,17.64-62.67,31.56-13.92-7-13.92,20.89,13.92,26.12-3.49,40-19.14-22.63-27.85,29.6-20.89,31.33-8.7,64.41,7,27.85,5.22,50.48,15.67,29.6,22.63,38.3,7,5.23,8.7,19.15,22.64,7,29.6,15.67-3.48,12.19,10.44,15.67-1.74-7,24.38-10.45S1000,3576.52,1000,3576.52Z"/><path class="cls-11" d="M776,3668.78c50.16,0,48.19-26.11,62.12-15.67s43.75-4.31,20.13,30.92-21.87,33.49-18.39,45.68-3.48,26.11-8.71,27.85-8.7,45.27-10.44-7,34.82-55.71-1.74-59.19c0,0-12.19-5.22-19.15-5.22s-7,1.74-8.71-3.48-5.22-3.48-12.18-5.22a65,65,0,0,0-13.93-1.75S771.32,3668.78,776,3668.78Z"/><path class="cls-11" d="M775.43,3808.05s5.22-19.15,29.59-17.41,18.79,17.41,24.19,17.41,9.31-1.74,10.84,0-10.66,3.48-19.36,7-7,7-10.45,10.45,0,10.44-17.41,5.22-17.4-1.74-17.4-12.19Z"/><path class="cls-11" d="M769.36,3671.78s-30.49,3.48-37.46-25.87-15.66,14.17-29.59-5-22.63-10.45-24.37-15.67-.5,20.53,20.64,23.32,14.18-2.43,22.88,4.53-5.22-.73,10.44,10.95S752.8,3681,759.76,3681s9.6-5,9.6-5Z"/><path class="cls-12" d="M1439.78,1667S1329,1575.42,1051,1704c-7.92,3.66-93,52.82-99.83,56.62A218.05,218.05,0,0,0,914,1786.1c-148.9,129.41,191,357.9,191,357.9s198.9,165.51,213,218c0,0,118.09,226,121.22,290S1439.78,1667,1439.78,1667Z"/><text class="cls-13" transform="translate(-225.41 -145.79)">ㅅ</text></svg>