<svg id="레이어_1" data-name="레이어 1" xmlns="http://www.w3.org/2000/svg" viewBox="0 0 582 485"><path d="M209.76,446.39c7,1,13.4,1.94,19.17,2.82l2.95.44q7.11,1.07,14.29,2c3.62.46,7.24.91,10.88,1.32,4.88.56,9.78,1,14.69,1.5,1.78.16,3.57.32,5.36.46q7.14.58,14.29,1c3.57.21,7.15.37,10.73.51.8,0,1.61.07,2.42.09q7.62.27,15.24.32,19.11.11,38.15-1.29,14.86-1.1,29.59-3.25l.49-.07q7-1,13.9-2.32,7.17-1.34,14.29-2.95c1.57-.36,3.13-.73,4.69-1.11,3.48-.85,6.95-1.73,10.4-2.68q6.78-1.87,13.49-4,3-1,6.08-2c1.86-.64,3.67-1.29,5.47-1.95l2.32-.87q7.5-2.83,14.28-5.93c50.55-23,72.08-55.35,79.91-85.49,11.18-43-5.49-81.43-5.49-81.43A707.72,707.72,0,0,0,498.73,167C448.61,85.2,363.89-13.1,264.2,33.71,213,57.77,167.13,93.43,129.9,136.42a425.36,425.36,0,0,0-54.57,79.69,566,566,0,0,0-24.48,51.78c-13.3,32.88-30.55,75-12.41,109,9.51,17.85,28.31,31,51.07,40.81,5.35,2.32,10.93,4.46,16.65,6.44,6.55,2.26,13.29,4.31,20.13,6.17,5.66,1.55,11.39,3,17.12,4.29,8.83,2,17.67,3.78,26.3,5.35,4.74.86,9.42,1.66,14,2.41q4.5.74,8.87,1.41c5.58.87,11,1.67,16.1,2.42"/></svg>